<svg id="web-img" xmlns="http://www.w3.org/2000/svg" width="500" height="500" viewBox="0 0 500 500">
  <g id="Rectangle_80" data-name="Rectangle 80" fill="#8fcbe6" stroke="#707070" stroke-width="1">
    <rect width="500" height="500" rx="40" stroke="none"/>
    <rect x="0.5" y="0.5" width="499" height="499" rx="39.5" fill="none"/>
  </g>
  <path id="Icon_awesome-html5" data-name="Icon awesome-html5" d="M0,2.25,13.477,155.092,73.95,175.25l60.859-20.158L148.286,2.25ZM119.015,51.64H48.038l1.583,19.076h67.81l-5.252,57.306L74.375,138.449v.116H73.95L35.836,128.023,33.519,98.752h18.42l1.352,14.713,20.66,5.6,20.737-5.6L97,89.445H32.553L27.61,33.22h93.1l-1.7,18.42Z" transform="translate(60.971 74.582)" fill="#f16529"/>
  <path id="Icon_awesome-css3" data-name="Icon awesome-css3" d="M185.357,2.25,160.643,144.357,74.413,175.25,0,144.357l7.569-36.608H39.234l-3.089,15.678,44.949,17.146,51.784-17.146,7.26-37.5H11.392L17.57,54.266H146.432l4.055-20.351H21.741L28.035,2.25H185.357Z" transform="translate(273 74.582)" fill="#2565ae"/>
  <path id="Icon_awesome-sass" data-name="Icon awesome-sass" d="M108.778,131.916C108.67,132.132,108.562,132.3,108.778,131.916Zm89.783-31.354a47.268,47.268,0,0,0-20.9,4.865c-2.126-4.289-4.325-8.037-4.685-10.848-.432-3.28-.9-5.226-.4-9.118s2.775-9.406,2.739-9.8-.5-2.379-5.154-2.415-8.649.9-9.114,2.126a44.266,44.266,0,0,0-1.91,6.883c-.829,4.217-9.294,19.281-14.088,27.137-1.586-3.063-2.919-5.766-3.207-7.929-.432-3.28-.9-5.226-.4-9.118s2.775-9.406,2.739-9.8-.5-2.379-5.15-2.415-8.649.9-9.118,2.126-.973,4.108-1.91,6.883S115.795,117,112.843,123.519c-1.514,3.316-2.811,5.982-3.748,7.784-.144.288-.252.468-.324.613.108-.18.18-.36.18-.288-.793,1.55-1.261,2.415-1.261,2.415v.036c-.613,1.153-1.3,2.2-1.622,2.2-.216,0-.685-3.027.108-7.172,1.694-8.721,5.694-22.272,5.658-22.74-.036-.252.757-2.595-2.631-3.856a4.242,4.242,0,0,0-4.757.793c-.288,0-.5.721-.5.721s3.64-15.28-6.988-15.28c-6.631,0-15.857,7.28-20.391,13.875-2.847,1.55-9.01,4.9-15.5,8.469-2.487,1.369-5.045,2.775-7.46,4.108-.18-.18-.324-.36-.5-.541-12.9-13.767-36.713-23.5-35.7-41.985.36-6.739,2.7-24.434,45.794-45.913C98.511,9.168,126.747,14,131.609,24.736c6.992,15.316-15.1,43.823-51.773,47.932-13.979,1.55-21.328-3.856-23.166-5.874-1.91-2.126-2.2-2.234-2.919-1.838-1.189.649-.432,2.523,0,3.64,1.081,2.847,5.586,7.892,13.259,10.415,6.739,2.2,23.13,3.424,42.947-4.253,22.265-8.577,39.6-32.471,34.514-52.472C139.3,1.96,105.592-4.707,73.723,6.609,54.735,13.348,34.2,23.944,19.427,37.746,1.88,54.18-.927,68.487.226,74.47c4.1,21.227,33.361,35.066,45.07,45.3-.577.324-1.117.613-1.622.9-5.871,2.919-28.175,14.6-33.757,26.921-6.307,13.983,1.045,24,5.871,25.371,15.061,4.18,30.482-3.352,38.767-15.713s7.28-28.507,3.46-35.859c-.036-.108-.108-.18-.144-.288,1.514-.9,3.063-1.8,4.613-2.7,2.988-1.766,5.907-3.388,8.465-4.793a55.977,55.977,0,0,0-3.027,15.353c-.649,7.929,2.631,18.2,6.883,22.236a7.563,7.563,0,0,0,5.546,1.8c4.973,0,7.208-4.108,9.691-9.01,3.063-5.982,5.766-12.938,5.766-12.938s-3.388,18.812,5.874,18.812c3.384,0,6.772-4.361,8.289-6.6v.036s.072-.144.252-.432c.36-.541.541-.865.541-.865V141.9c1.369-2.343,4.361-7.712,8.862-16.578,5.838-11.46,11.421-25.768,11.421-25.768a72.524,72.524,0,0,0,2.234,9.3c1.009,3.424,3.135,7.172,4.829,10.812-1.369,1.874-2.2,2.955-2.2,2.955a.112.112,0,0,0,.036.072c-1.081,1.442-2.306,2.991-3.568,4.5-4.609,5.478-10.091,11.749-10.812,13.551-.865,2.126-.649,3.712,1.009,4.937,1.225.937,3.388,1.081,5.654.9a24.991,24.991,0,0,0,8.469-1.946,29.624,29.624,0,0,0,7.276-3.82,16.269,16.269,0,0,0,6.992-14.343,29.847,29.847,0,0,0-2.631-10.163c.4-.577.829-1.189,1.225-1.8a191.583,191.583,0,0,0,12.646-21.847,72.52,72.52,0,0,0,2.234,9.3,63.57,63.57,0,0,0,4.1,9.262c-6.7,5.442-10.844,11.749-12.286,15.893-2.667,7.676-.577,11.136,3.352,11.929,1.766.36,4.289-.469,6.163-1.261a28.637,28.637,0,0,0,7.781-4c4.5-3.316,8.862-7.965,8.574-14.271a26.811,26.811,0,0,0-1.946-8.433c5.658-2.379,13.006-3.676,22.376-2.595,20.066,2.343,23.995,14.884,23.238,20.11s-4.973,8.145-6.379,9.01-1.838,1.189-1.73,1.838c.18.937.829.9,2.018.685,1.658-.288,10.52-4.253,10.916-13.947.577-12.253-11.2-25.732-32.074-25.624ZM43.891,152.71c-6.628,7.244-15.926,9.983-19.922,7.676-4.289-2.494-2.595-13.154,5.582-20.874a106.779,106.779,0,0,1,15.637-11.677c.973-.577,2.379-1.442,4.108-2.487.288-.18.432-.252.432-.252.324-.216.685-.4,1.045-.613A28.765,28.765,0,0,1,43.891,152.7ZM92.312,119.77c-2.306,5.658-7.168,20.074-10.123,19.317-2.523-.649-4.072-11.641-.5-22.452,1.8-5.442,5.622-11.929,7.892-14.452,3.636-4.072,7.637-5.37,8.574-3.748C99.412,100.562,93.754,116.239,92.312,119.77Zm40,19.1c-.973.5-1.874.829-2.306.577-.324-.18.4-.865.4-.865s5.009-5.37,6.992-7.82c1.153-1.442,2.487-3.135,3.925-5.009,0,.18.036.36.036.577-.047,6.451-6.242,10.812-9.053,12.541Zm30.842-7.028c-.721-.5-.613-2.2,1.8-7.46a28.01,28.01,0,0,1,6.847-8.829,13.038,13.038,0,0,1,.685,3.892c-.036,8.109-5.838,11.136-9.33,12.4Z" transform="translate(134.875 273.249)" fill="#cd6799"/>
</svg>
